<svg width="26" height="26" viewBox="0 0 26 26" fill="none" xmlns="http://www.w3.org/2000/svg">
<path d="M23.416 10.3998C23.416 10.055 23.279 9.72439 23.0352 9.48059C22.7914 9.23678 22.4608 9.09982 22.116 9.09982C21.7712 9.09982 21.4405 9.23678 21.1967 9.48059C20.9529 9.72439 20.816 10.055 20.816 10.3998H23.416ZM5.21597 10.3998C5.21597 10.055 5.07901 9.72439 4.83521 9.48059C4.59142 9.23678 4.26076 9.09982 3.91597 9.09982C3.57119 9.09982 3.24053 9.23678 2.99674 9.48059C2.75294 9.72439 2.61597 10.055 2.61597 10.3998H5.21597ZM23.7969 13.919C24.0421 14.1558 24.3704 14.2868 24.7113 14.2839C25.0522 14.2809 25.3782 14.1442 25.6192 13.9031C25.8603 13.6621 25.997 13.336 26 12.9952C26.0029 12.6543 25.8719 12.3259 25.6351 12.0808L23.7969 13.919ZM13.016 1.29974L13.9351 0.380626C13.6913 0.136911 13.3607 0 13.016 0C12.6713 0 12.3407 0.136911 12.0969 0.380626L13.016 1.29974ZM0.396875 12.0808C0.272711 12.2007 0.173675 12.3441 0.105543 12.5027C0.0374112 12.6613 0.00154904 12.8319 4.90837e-05 13.0045C-0.00145088 13.1772 0.0314414 13.3483 0.0968065 13.5081C0.162172 13.6679 0.258701 13.813 0.380761 13.9351C0.502822 14.0571 0.647969 14.1537 0.807734 14.219C0.9675 14.2844 1.13868 14.3173 1.3113 14.3158C1.48391 14.3143 1.6545 14.2784 1.8131 14.2103C1.97171 14.1422 2.11515 14.0431 2.23507 13.919L0.396875 12.0808ZM6.51597 26H19.516V23.4H6.51597V26ZM23.416 22.1V10.3998H20.816V22.1H23.416ZM5.21597 22.1V10.3998H2.61597V22.1H5.21597ZM25.6351 12.0808L13.9351 0.380626L12.0969 2.21885L23.7969 13.919L25.6351 12.0808ZM12.0969 0.380626L0.396875 12.0808L2.23507 13.919L13.9351 2.21885L12.0969 0.380626ZM19.516 26C20.5503 26 21.5423 25.5891 22.2737 24.8577C23.0051 24.1263 23.416 23.1343 23.416 22.1H20.816C20.816 22.4447 20.679 22.7754 20.4352 23.0192C20.1914 23.263 19.8608 23.4 19.516 23.4V26ZM6.51597 23.4C6.17119 23.4 5.84053 23.263 5.59674 23.0192C5.35294 22.7754 5.21597 22.4447 5.21597 22.1H2.61597C2.61597 23.1343 3.02687 24.1263 3.75826 24.8577C4.48965 25.5891 5.48163 26 6.51597 26V23.4Z" fill="#831EFF"/>
</svg>
