<svg width="20" height="30" viewBox="0 0 20 30" fill="none" xmlns="http://www.w3.org/2000/svg">
<path d="M10 0C4.47937 0 0 4.31987 0 9.64286C0 18.2143 10 30 10 30C10 30 20 18.2143 20 9.64286C20 4.31987 15.5206 0 10 0ZM10 15C9.20887 15 8.43552 14.7486 7.77772 14.2777C7.11992 13.8068 6.60723 13.1375 6.30448 12.3544C6.00173 11.5712 5.92252 10.7095 6.07686 9.87818C6.2312 9.04684 6.61216 8.2832 7.17157 7.68383C7.73098 7.08446 8.44372 6.67628 9.21964 6.51092C9.99556 6.34555 10.7998 6.43043 11.5307 6.7548C12.2616 7.07918 12.8864 7.62849 13.3259 8.33327C13.7654 9.03805 14 9.86665 14 10.7143C13.9988 11.8505 13.577 12.9399 12.8271 13.7434C12.0773 14.5468 11.0605 14.9988 10 15Z" fill="black"/>
</svg>
