<svg width="46" height="48" viewBox="0 0 46 48" fill="none" xmlns="http://www.w3.org/2000/svg">
<path d="M2.68116 16.788C2.68116 14.428 3.57532 10.8987 6.25112 7.97467C8.89072 5.08933 13.3803 2.66667 20.8246 2.66667C24.7122 2.66667 27.2553 3.13733 29.1643 3.88933C31.0599 4.636 32.4273 5.7 33.9368 7.072L34.2826 7.38533C35.469 8.45867 36.1085 9.03867 36.4477 9.924C38.1582 14.3907 41.204 20.808 43.1774 24.8547C43.6198 25.7627 42.9495 26.816 41.9521 26.816H39.0068V36C39.0068 36.3536 38.8656 36.6928 38.6142 36.9428C38.3628 37.1929 38.0218 37.3333 37.6662 37.3333H30.3668C30.3058 37.3265 30.2445 37.3238 30.1831 37.3253C29.9526 37.3307 29.73 37.3333 29.5155 37.3333H29.3453C26.2807 37.3253 24.8034 36.856 22.6236 36.0787C22.4572 36.0161 22.2799 35.9871 22.1021 35.9934C21.9243 35.9996 21.7495 36.041 21.588 36.1152C21.4264 36.1893 21.2813 36.2947 21.1611 36.4252C21.0409 36.5556 20.9481 36.7086 20.8879 36.8751C20.8278 37.0417 20.8016 37.2185 20.8108 37.3952C20.8201 37.5719 20.8646 37.745 20.9418 37.9044C21.019 38.0639 21.1273 38.2064 21.2605 38.3238C21.3936 38.4411 21.549 38.531 21.7174 38.588C23.7913 39.328 25.4093 39.8413 28.0784 39.9693V48H30.7596V40H37.6676C38.7342 40 39.7572 39.5786 40.5114 38.8284C41.2656 38.0783 41.6893 37.0609 41.6893 36V29.4827H41.9534C44.9469 29.4827 46.8881 26.3547 45.5904 23.692C43.6144 19.6387 40.6169 13.3187 38.9545 8.97467C38.3727 7.45467 37.2265 6.42933 36.1407 5.45867L35.7465 5.10267C34.1445 3.64667 32.4929 2.33333 30.1536 1.40933C27.8264 0.493334 24.9173 0 20.8246 0C12.7422 0 7.48981 2.65867 4.2684 6.17867C1.08319 9.65867 0 13.8587 0 16.788C0 24.3347 4.28717 30.2067 6.7525 32.8507V48H9.43365V31.7747L9.05159 31.3867C6.87985 29.1747 2.68116 23.72 2.68116 16.788Z" fill="white"/>
</svg>
